<?xml version="1.0" standalone="no"?>
<!DOCTYPE svg PUBLIC "-//W3C//DTD SVG 20010904//EN"
 "http://www.w3.org/TR/2001/REC-SVG-20010904/DTD/svg10.dtd">
<svg version="1.0" xmlns="http://www.w3.org/2000/svg"
 width="582.000000pt" height="582.000000pt" viewBox="0 0 582.000000 582.000000"
 preserveAspectRatio="xMidYMid meet">

<g transform="translate(0.000000,582.000000) scale(0.100000,-0.100000)"
fill="#000000" stroke="none">
<path d="M4300 5355 l0 -105 -215 0 -215 0 0 -110 0 -110 -535 0 -535 0 0
-105 0 -105 -210 0 -210 0 0 -105 0 -105 -215 0 -215 0 0 -110 0 -110 -105 0
-105 0 0 -210 0 -210 -110 0 -110 0 0 -215 0 -215 -105 0 -105 0 0 -640 0
-640 -105 0 -105 0 0 105 0 105 -110 0 -110 0 0 110 0 110 -210 0 -210 0 0
-110 0 -110 -110 0 -110 0 0 -210 0 -210 110 0 110 0 0 -215 0 -215 105 0 105
0 0 -215 0 -215 105 0 105 0 0 -210 0 -210 110 0 110 0 0 -110 0 -110 105 0
105 0 0 -105 0 -105 215 0 215 0 0 105 0 105 320 0 320 0 0 110 0 110 105 0
105 0 0 105 0 105 105 0 105 0 0 -105 0 -105 535 0 535 0 0 105 0 105 215 0
215 0 0 105 0 105 210 0 210 0 0 110 0 110 110 0 110 0 0 210 0 210 105 0 105
0 0 215 0 215 105 0 105 0 0 640 0 640 110 0 110 0 0 215 0 215 -110 0 -110 0
0 320 0 320 -105 0 -105 0 0 320 0 320 -105 0 -105 0 0 105 0 105 -320 0 -320
0 0 -105z m640 -320 l0 -215 -110 0 -110 0 0 -105 0 -105 215 0 215 0 0 -110
0 -110 -105 0 -105 0 0 -210 0 -210 210 0 210 0 0 -215 0 -215 -105 0 -105 0
0 105 0 105 -215 0 -215 0 0 110 0 110 -210 0 -210 0 0 105 0 105 105 0 105 0
0 215 0 215 -215 0 -215 0 0 -110 0 -110 -210 0 -210 0 0 215 0 215 105 0 105
0 0 105 0 105 215 0 215 0 0 110 0 110 320 0 320 0 0 -215z m-1710 -750 l0
-105 -320 0 -320 0 0 -105 0 -105 -105 0 -105 0 0 105 0 105 105 0 105 0 0
105 0 105 320 0 320 0 0 -105z m1070 -850 l0 -105 105 0 105 0 0 -110 0 -110
105 0 105 0 0 -320 0 -320 -105 0 -105 0 0 -105 0 -105 -215 0 -215 0 0 105 0
105 -745 0 -745 0 0 -105 0 -105 -215 0 -215 0 0 -215 0 -215 110 0 110 0 0
-210 0 -210 105 0 105 0 0 -215 0 -215 -215 0 -215 0 0 215 0 215 -105 0 -105
0 0 210 0 210 -105 0 -105 0 0 110 0 110 -110 0 -110 0 0 105 0 105 320 0 320
0 0 105 0 105 -105 0 -105 0 0 320 0 320 105 0 105 0 0 110 0 110 110 0 110 0
0 105 0 105 960 0 960 0 0 -105z m-3420 -1070 l0 -105 110 0 110 0 0 -105 0
-105 -110 0 -110 0 0 -110 0 -110 -105 0 -105 0 0 110 0 110 -105 0 -105 0 0
210 0 210 210 0 210 0 0 -105z"/>
<path d="M2380 3005 l0 -105 -110 0 -110 0 0 -105 0 -105 110 0 110 0 0 105 0
105 210 0 210 0 0 -105 0 -105 110 0 110 0 0 105 0 105 -110 0 -110 0 0 105 0
105 -210 0 -210 0 0 -105z"/>
<path d="M3870 3005 l0 -105 -105 0 -105 0 0 -105 0 -105 105 0 105 0 0 105 0
105 215 0 215 0 0 -105 0 -105 105 0 105 0 0 105 0 105 -105 0 -105 0 0 105 0
105 -215 0 -215 0 0 -105z"/>
</g>
</svg>
